<svg width="113" height="99" viewBox="0 0 113 99" fill="#fff" xmlns="http://www.w3.org/2000/svg">
<path d="M59.0127 11.6496C59.2286 12.7529 60.0441 12.681 60.6917 12.8249C61.771 13.0647 62.8503 13.3046 63.9536 13.5444C65.0329 13.8322 66.0882 14.12 67.0715 14.5997C72.8758 17.3579 78.4882 19.9483 83.5729 23.0662C85.8754 24.4573 88.01 26.0403 89.9767 27.7912C91.9194 29.5181 93.8382 31.4129 95.3732 33.4036C96.9322 35.4183 98.3473 37.6009 99.5466 39.8794C100.722 42.1819 101.705 44.6283 102.497 47.1227C104.2 52.5192 104.056 58.3954 102.281 63.5521C100.578 68.7087 96.9082 73.2178 92.519 77.3431L90.8402 78.8782L89.0653 80.3172L88.1779 81.0368L87.2425 81.6843C86.6189 82.1161 85.9713 82.5478 85.3477 82.9795C82.7094 84.5625 79.9512 86.0016 77.0251 87.0329C67.4313 90.5107 56.9261 91.9977 46.5648 91.2062C38.0743 90.5106 29.7756 87.7284 23.5636 83.1954C18.2631 79.4298 13.5621 74.489 10.684 68.5408C10.0124 67.1018 9.55674 65.5908 8.98111 64.1277C6.75055 58.8031 5.74319 52.831 6.4867 46.8109C6.94241 43.3092 8.45345 40.0233 10.3242 37.1931C12.219 34.363 14.4256 31.9645 16.3923 29.59C18.5509 27.6233 20.7095 25.7525 22.964 23.9057C25.1946 22.0829 27.5691 20.2841 29.9915 18.6771C32.1981 17.238 34.5006 15.9668 36.899 14.8635C39.2975 13.7603 41.7679 12.8968 44.2623 12.1533C49.275 10.8102 54.5036 10.3305 59.4684 11.17C60.3559 11.3139 61.2433 11.3618 62.1548 11.3139C62.6105 11.2659 63.0901 11.1939 63.5938 11.05C64.0735 10.9781 64.5771 10.8342 65.1048 10.6423C67.4553 9.73088 68.8224 7.74017 67.4313 5.50961C67.1435 5.02992 66.8077 4.59821 66.4719 4.16648C66.376 4.07055 66.304 3.95061 66.2081 3.85467C66.0881 3.85467 66.0162 3.6628 65.9203 3.59084C65.7284 3.39897 65.5605 3.20712 65.3447 3.01524C64.5772 2.2957 63.7137 1.57616 62.7544 1.16842C60.8836 0.137091 58.653 -0.270654 56.3025 0.185051C55.583 0.328958 54.9114 0.496865 54.2158 0.688741C53.5443 0.904602 52.8967 1.16843 52.2491 1.43225C50.954 1.93593 49.7548 2.63147 48.5795 3.25506C46.229 4.57421 44.0464 5.86939 41.648 6.68486C40.5447 7.04463 39.3934 7.06862 38.2661 7.21252C37.1389 7.33245 36.0356 7.54829 35.1722 8.24384C33.2295 9.73088 31.1188 10.7382 29.0321 11.8415C26.9694 12.9688 24.9788 14.24 23.5397 16.2067C23.2759 16.5665 22.8202 16.7344 22.4124 16.9502C20.3258 18.0295 18.1672 19.0129 16.1765 20.332C14.2097 21.6512 12.3629 23.3061 11.2357 25.5846C9.9405 28.127 7.92581 30.3575 6.29486 32.8519C5.07165 34.7467 3.68056 36.6175 2.55329 38.6562C1.47398 40.6948 0.562535 42.9254 0.490582 45.2759C0.418629 47.6743 0.130832 50.0248 0.0588788 52.3753C-0.0370592 54.7258 -0.0610554 57.1242 0.346681 59.4507C0.442619 60.1943 0.706448 60.9138 0.946293 61.6573C2.19349 65.7107 3.70452 69.5962 5.52734 73.4097C7.54204 77.535 10.1564 81.6124 13.874 84.4665C17.1598 87.0329 20.7335 89.1196 24.4271 90.8944C28.1207 92.6453 31.9343 94.0843 35.8198 95.5234C41.8638 97.754 48.4836 98.7133 54.9354 98.3296C60.9075 97.9698 66.8077 97.4182 72.7079 96.123L75.1543 95.5714L77.5768 94.8998C79.2077 94.4921 80.7906 93.8925 82.3976 93.3648C85.5396 92.1416 88.6816 90.8224 91.6077 89.0476C93.1187 88.2321 94.5098 87.2248 95.9249 86.2654C97.292 85.234 98.6352 84.1547 99.9303 83.0275C102.473 80.701 104.823 78.0387 106.694 74.9927C107.629 73.4337 108.349 71.7787 109.284 70.2197C109.62 69.6681 109.98 69.1404 110.268 68.5648C110.531 67.9892 110.795 67.3896 111.059 66.8139L111.443 65.9265L111.731 65.0151C111.923 64.3915 112.09 63.7919 112.258 63.1683C112.522 61.9211 112.738 60.65 112.858 59.3788C112.93 58.1076 113.05 56.8364 112.978 55.5892C112.834 50.5525 111.755 45.7316 110.483 41.0067C110.459 40.9107 110.34 40.8627 110.292 40.7668C107.605 37.1691 105.111 33.8353 102.545 30.6214C99.9543 27.4074 97.244 24.3854 94.3179 21.5312C92.3032 19.6125 90.1206 17.8376 87.7702 16.3266C85.4437 14.7916 82.9733 13.4725 80.4309 12.3452C77.8886 11.1939 75.2742 10.2346 72.612 9.41909C69.9737 8.57964 67.2635 7.93205 64.5532 7.35643C62.9942 7.02064 61.3392 7.21251 60.068 8.84345C59.4684 9.58697 58.7969 10.4744 59.0607 11.6736L59.0127 11.6496Z" />
<path d="M53.9286 96.6987C53.0651 96.195 53.1611 94.9718 53.0652 93.9885C52.7534 90.6786 52.6814 87.2968 52.1297 84.0349C50.5228 74.537 49.6593 64.8473 48.8918 55.3255C47.8605 42.9015 46.8292 30.4535 45.8218 17.9816C45.7259 16.8304 45.63 15.7511 45.558 14.7677C45.3422 11.8896 45.558 9.10737 46.3015 6.49306C47.165 3.56695 48.4362 3.20719 49.8513 5.74955C52.2737 10.0428 54.0006 14.6238 53.8087 20.2362C53.6888 23.6659 53.1371 26.9758 52.6574 30.3096C52.9692 34.6268 53.425 38.944 53.9766 43.2373C55.8954 58.6833 56.7348 74.2013 57.6942 89.7192C57.8381 91.9498 57.5983 94.1803 56.2311 95.7153C55.6076 96.4349 54.864 97.2743 53.9047 96.7227L53.9286 96.6987Z" />
<path d="M51.5781 92.7652C51.3862 93.005 51.1464 93.1729 50.8346 93.2929C50.5228 93.3888 50.163 93.4128 49.8032 93.4128C49.4435 93.4128 49.0597 93.3168 48.6759 93.2449C48.3162 93.125 47.9325 93.029 47.5967 92.9091C45.3182 92.0936 43.5913 90.6546 42.1282 89.2395C40.6652 87.8004 39.4179 86.2654 38.1947 84.9223C34.5731 80.9888 31.2152 76.6716 28.3611 71.8987C26.922 69.5242 25.6749 67.0058 24.5236 64.4155C23.4203 61.8012 22.5089 59.091 21.8373 56.2848C20.9739 52.6391 20.5182 48.8256 20.6381 44.9881C20.758 41.1506 21.4536 37.337 22.6048 33.7154C24.9553 26.472 29.0807 20.0682 34.1174 14.7676C35.0288 13.7603 35.9402 12.8969 36.7797 12.0814C39.2501 9.80285 42.0803 8.12391 45.0543 7.33243C48.4122 6.49297 49.2996 7.59628 47.7166 10.2825C47.045 11.4098 46.4214 12.5611 45.7259 13.6164C45.0783 14.7437 44.3348 15.751 43.6393 16.8063C42.1522 18.869 40.4973 20.8117 38.4346 22.7305C35.9162 25.0809 33.3259 27.3115 31.0234 29.9738C28.9607 33.9792 27.6176 38.3923 27.4017 42.8295C27.1859 46.8109 27.6176 50.7923 28.577 54.6778C29.5844 58.5633 31.0714 62.3289 32.8942 65.9745C34.717 69.6202 36.8756 73.1459 39.2021 76.5757C40.3774 78.3025 41.5765 79.9815 42.8237 81.6604C44.0469 83.3393 45.2702 84.8743 46.6373 86.0735C47.4048 86.7691 48.1243 87.3927 48.7479 88.0403C49.3715 88.6878 49.9232 89.3354 50.5707 90.1749C50.8586 90.5826 51.2663 90.9424 51.5301 91.3741C51.7939 91.8058 51.9378 92.2615 51.5301 92.7652H51.5781Z" />
<path d="M56.3019 94.9485C56.4938 93.8692 57.621 93.5814 58.4365 93.0537C61.1947 91.3269 63.7611 88.9764 65.32 86.0023C66.4473 83.8437 67.3348 81.5891 67.9824 79.2627C68.6299 76.9122 69.0856 74.4897 69.3734 71.9954C69.973 67.0306 69.9971 61.778 69.9491 56.5014C69.8532 49.6658 69.3255 42.9502 67.7185 36.6662C66.927 33.5003 65.8477 30.4782 64.4806 27.648C63.809 26.2329 62.9936 24.8658 62.1541 23.5227C61.2907 22.2275 60.3793 20.9324 59.3479 19.7572C58.5804 18.8937 57.8609 18.1022 57.1413 17.4307C55.1266 15.416 53.2079 13.5452 51.3851 11.3626C49.2984 9.0121 49.2744 7.45311 52.7282 7.50108C55.6303 7.621 58.6284 8.41248 61.3386 9.97148C64.0489 11.5305 66.4714 13.857 68.2222 16.879C70.3329 20.5966 71.3642 24.578 71.9638 28.4635C73.7626 33.2124 74.9858 38.1292 75.8253 43.0461C76.5928 47.4832 76.9526 51.9683 77.0485 56.4054C77.1444 60.8186 77.1444 65.2797 76.6647 69.8128C76.185 74.3218 75.2256 78.9029 73.4028 83.2681C71.556 87.6093 68.8698 91.6627 65.2242 94.9006C64.1928 95.836 62.9696 96.5794 61.7464 97.0112C60.4992 97.4189 59.252 97.4909 58.1487 97.0831C57.0934 96.6994 56.0381 96.1957 56.2539 94.9725L56.3019 94.9485Z" />
<path d="M107.078 46.14C106.622 47.1713 105.255 47.2193 104.152 47.4351C100.482 48.2026 96.7164 48.6823 93.1428 49.6417C82.6615 52.4479 71.8685 54.2707 61.1715 55.6618C47.2365 57.5086 33.2535 59.0916 19.1986 60.1229C17.9035 60.2189 16.6802 60.3148 15.5769 60.3868C12.339 60.5787 9.19705 60.3388 6.27095 59.4034C3.00906 58.3721 2.6493 56.933 5.52743 55.398C10.3963 52.8077 15.481 50.9369 21.717 51.1527C25.5305 51.2727 29.2241 51.8963 32.9417 52.352C37.7626 51.9442 42.5835 51.2967 47.3564 50.5292C64.5293 47.7949 81.7261 45.6603 98.8271 42.7582C101.273 42.3504 103.792 42.3264 105.663 43.6456C106.526 44.2452 107.581 44.9647 107.078 46.092V46.14Z" />
<path d="M99.7622 17.19C99.6903 18.2693 98.4431 18.773 97.5077 19.3247C96.7162 19.8043 95.9247 20.2601 95.1332 20.7158C94.3418 21.1715 93.5022 21.5552 92.6868 21.9869C91.0318 22.8024 89.4728 23.7378 87.8659 24.5773C85.5394 25.8724 83.189 27.1436 80.7425 28.1989C79.5193 28.7266 78.2961 29.3022 77.0489 29.7819L73.2593 31.149C72.6357 31.3649 71.9882 31.6047 71.3646 31.7966L69.4219 32.3483L65.5603 33.4275C64.2652 33.7393 62.946 34.0032 61.6508 34.291C60.3317 34.5548 59.0366 34.8666 57.7174 35.0585C50.8819 36.3057 43.9264 36.8093 36.9709 36.8573C33.4931 36.9293 30.0153 36.6894 26.5615 36.4736L21.381 35.8979C19.6541 35.7061 17.9511 35.3463 16.2242 35.0825C14.9531 34.8906 13.7778 34.6987 12.6985 34.4109C11.1395 34.0512 9.6285 33.5954 8.21342 33.0198C6.79833 32.4202 5.47918 31.6287 4.30394 30.7413C1.64166 28.7506 1.88153 27.3595 4.92756 26.9038C6.22272 26.7119 7.49393 26.544 8.7891 26.4481C10.0603 26.3521 11.3554 26.2322 12.6506 26.2322C15.2169 26.3042 17.8552 26.52 20.6374 27.3355C24.0671 28.2229 27.329 29.5181 30.7588 30.4535C31.9101 30.5014 33.0374 30.6214 34.1887 30.6214L37.6184 30.5734C39.8969 30.5734 42.1755 30.2856 44.454 30.1177C52.6087 29.2303 60.6675 27.7672 68.5344 25.5846C76.4013 23.402 84.0524 20.4999 91.2957 16.7583C92.351 16.2547 93.4063 15.751 94.4856 15.4872C95.5649 15.2233 96.6442 15.1754 97.6995 15.4392C98.6829 15.703 99.8821 15.9908 99.8102 17.1661L99.7622 17.19Z" />
<path d="M108.396 79.4059C107.508 80.1494 106.285 79.6217 105.206 79.3579C104.318 79.142 103.407 78.9022 102.519 78.6863C101.632 78.4465 100.697 78.3026 99.8092 78.1107C98.8978 77.9189 97.9864 77.751 97.0989 77.607C96.6432 77.5351 96.1876 77.4632 95.7319 77.3912L94.3647 77.2952C93.0216 77.2233 91.7024 77.1513 90.3833 77.0314C89.0641 76.8875 87.721 76.9355 86.4019 76.8635C85.0827 76.8396 83.7636 76.7196 82.4204 76.7196H78.439C77.7674 76.6957 77.1199 76.6717 76.4483 76.6717L74.4576 76.7436L70.5001 76.8396C69.181 76.9115 67.8619 77.0074 66.5667 77.0794C65.2476 77.1753 63.9524 77.1993 62.6332 77.3672L57.5485 77.9189L52.4878 78.7343C51.6483 78.8542 50.8089 79.0221 49.9694 79.214L47.4511 79.7417L44.9327 80.2693L42.4623 80.9409C39.1284 81.7564 35.8905 82.8357 32.6286 83.891L27.8317 85.6898C26.2248 86.2654 24.6898 87.0329 23.1068 87.6805C21.9555 88.1842 20.8522 88.6399 19.8929 89.1436C18.4778 89.8391 17.0387 90.4148 15.5517 90.8465C14.0886 91.3262 12.6496 91.7099 11.1385 91.9258C7.75673 92.3815 6.70139 91.3022 8.64413 88.6399C9.48359 87.5127 10.3711 86.3854 11.3064 85.3301C12.2658 84.2747 13.3451 83.3394 14.4964 82.4519C16.7509 80.6051 19.4852 79.238 22.6271 78.2786C26.5126 77.2233 30.3741 76.7436 34.2596 76.4798C35.4588 76.12 36.6341 75.6883 37.8573 75.4005L41.4789 74.3931C43.8773 73.6496 46.3238 73.1699 48.7223 72.5224C57.4526 70.4357 66.4708 69.5243 75.4649 69.6442C84.4591 69.7641 93.4293 70.9154 102.208 72.9541C103.479 73.1939 104.702 73.6736 105.733 74.2732C106.789 74.8728 107.676 75.6643 108.228 76.6717C108.755 77.6071 109.355 78.6864 108.396 79.5018V79.4059Z" />
</svg>
