<svg width="42" height="16" viewBox="0 0 42 16" fill="none" xmlns="http://www.w3.org/2000/svg">
<path d="M25.2387 15.9241C25.4948 16.1022 25.6622 15.9241 25.8394 15.8251C26.4303 15.4886 26.9917 15.0927 27.622 14.8354C29.4635 14.103 31.1968 13.1826 32.9103 12.2721C33.9345 11.7278 34.9784 11.2033 36.0223 10.6886L36.4161 10.5006L36.7708 10.3323L37.1745 10.1443L38.7895 9.39213C39.863 8.90719 40.9266 8.42224 42 7.92739L40.5228 6.93771L39.0653 5.97771C38.5729 5.66101 38.1002 5.34431 37.6078 5.0474L36.8791 4.60205L36.7116 4.50308L36.6132 4.4437L36.4161 4.33483C33.7375 2.8602 31.0983 1.30639 28.331 0L27.0606 2.35546C27.7893 2.77112 28.5083 3.18679 29.2272 3.60246C29.6408 3.83999 30.0446 4.08741 30.4582 4.33483L30.6059 4.4338L30.6847 4.48328H30.7142L30.8324 4.55256C30.9112 4.59215 30.99 4.64163 31.0688 4.69112C31.3937 4.88906 31.7581 5.13648 32.024 5.374L32.1914 5.52245L32.28 5.59173L32.2998 5.61153C32.2998 5.61153 32.2899 5.61153 32.28 5.61153H32.221L31.7679 5.62142L30.8521 5.66101L30.3597 5.68081L29.168 5.71049L26.7652 5.76988C24.1555 5.80946 21.5359 5.61153 18.9164 5.53235C16.7104 5.46307 18.0103 5.6907 15.7945 5.6907C15.2627 5.6907 16.3263 5.65111 15.7945 5.6907C13.8249 5.81936 13.6378 5.84905 11.6781 5.95792C9.3835 6.08658 17.9315 5.59173 15.7945 5.6907C15.7551 5.58184 13.9333 5.78967 12.0917 5.92823C8.77291 6.18555 5.44429 6.3241 2.12552 6.53194C1.53464 6.56163 0.963448 6.71998 0.451353 7.03668C-0.11983 7.39296 -0.159219 7.76904 0.392268 8.10554C1.33767 8.66966 2.30281 9.03585 3.44518 8.81811C4.8239 8.5608 6.06475 7.76904 7.5124 7.67008C8.17222 7.62059 8.80247 7.92739 9.4032 7.76904C10.7327 7.39296 12.1212 7.70966 13.431 7.24451C13.5492 7.20492 13.6969 7.22472 13.8249 7.24451C15.1938 7.34348 14.5635 7.67008 15.9718 7.33358C16.7695 7.14554 6.82302 7.22472 7.66994 7.2643C8.97972 7.33358 10.2796 7.72946 11.5796 7.54142C12.9189 7.34348 14.2484 7.48204 15.5779 7.45234C15.7946 7.45234 16.0014 7.41276 16.218 7.39296C17.4097 7.2742 11.7077 7.2643 12.8993 7.31379C14.2091 7.36327 15.5287 7.47214 16.8286 7.35338C19.1626 7.14554 21.4867 7.05647 23.8305 7.33358C25.6524 7.54142 27.5136 7.62059 29.3256 7.55131L29.9559 7.53152L30.6847 7.51173C31.3051 7.51173 31.9255 7.50183 32.546 7.50183H33.4913C33.8065 7.50183 34.1414 7.51173 34.427 7.50183C35.0474 7.50183 35.658 7.48204 36.2784 7.47214H37.2632L37.7654 7.45234H37.8245H37.854L37.8343 7.43255L37.7556 7.35338L37.5881 7.20492L36.2291 6.0074C35.3132 5.20576 34.3579 4.35462 33.2353 3.4936L32.3884 2.8503L31.7089 2.35546C31.3445 2.09814 30.9802 1.84082 30.6158 1.60329C29.8772 1.11835 29.1188 0.653193 28.331 0.237525L27.2477 2.24659L27.9666 2.56329C28.3999 2.75133 28.8431 2.89978 29.2371 3.167C30.3302 3.90926 31.5021 4.50308 32.674 5.09689C33.255 5.3938 33.8459 5.7006 34.4171 6.02719C34.7027 6.18554 34.9883 6.35379 35.264 6.53194L35.4412 6.6408L35.5398 6.71008C35.5989 6.75956 35.6677 6.79915 35.717 6.84864C35.717 6.84864 35.7564 6.84864 35.7761 6.84864C36.0519 6.87833 36.3768 6.9674 36.7314 7.09606C36.9086 7.15544 37.0859 7.23461 37.2632 7.31379L37.5388 7.44245L37.6767 7.51173C37.6767 7.51173 37.795 7.56121 37.7457 7.57111C37.4109 7.83832 36.8199 8.15502 36.1995 8.46183L35.7268 8.68945L35.2049 8.92698C34.8405 9.08533 34.486 9.24368 34.1216 9.39213C31.1574 10.649 28.3901 12.3018 25.6622 14.014C25.2683 14.2515 24.9532 14.6177 24.9631 15.1818C24.9631 15.449 24.9728 15.7558 25.2486 15.9538L25.2387 15.9241Z" fill="currentColor"/>
</svg>
