<svg width="45" height="19" viewBox="0 0 45 19" fill="none" xmlns="http://www.w3.org/2000/svg">
<path d="M18.7613 16.9241C18.5052 17.1022 18.3378 16.9241 18.1606 16.8251C17.5697 16.4886 17.0083 16.0927 16.378 15.8354C14.5365 15.103 12.8032 14.1826 11.0897 13.2721C10.0655 12.7278 9.02156 12.2033 7.97767 11.6886L7.58385 11.5006L7.22922 11.3323L6.82554 11.1443L5.21045 10.3921C4.13702 9.90719 3.07343 9.42224 2 8.92739L3.4772 7.93771L4.93468 6.97771C5.42708 6.66101 5.89977 6.34431 6.39216 6.0474L7.1209 5.60205L7.28836 5.50308L7.38682 5.4437L7.58385 5.33483C10.2625 3.8602 12.9017 2.30639 15.669 1L16.9394 3.35546C16.2107 3.77112 15.4917 4.18679 14.7728 4.60246C14.3592 4.83999 13.9554 5.08741 13.5418 5.33483L13.3941 5.4338L13.3153 5.48328H13.2858L13.1676 5.55256C13.0888 5.59215 13.01 5.64163 12.9312 5.69112C12.6063 5.88906 12.2419 6.13648 11.976 6.374L11.8086 6.52245L11.72 6.59173L11.7002 6.61153C11.7002 6.61153 11.7101 6.61153 11.72 6.61153H11.779L12.2321 6.62142L13.1479 6.66101L13.6403 6.68081L14.832 6.71049L17.2348 6.76988C19.8445 6.80946 22.4641 6.61153 25.0836 6.53235C27.2896 6.46307 25.9897 6.6907 28.2055 6.6907C28.7373 6.6907 27.6737 6.65111 28.2055 6.6907C30.1751 6.81936 30.3622 6.84905 32.3219 6.95792C34.6165 7.08658 26.0685 6.59173 28.2055 6.6907C28.2449 6.58184 30.0667 6.78967 31.9083 6.92823C35.2271 7.18555 38.5557 7.3241 41.8745 7.53194C42.4654 7.56163 43.0366 7.71998 43.5486 8.03668C44.1198 8.39296 44.1592 8.76904 43.6077 9.10554C42.6623 9.66966 41.6972 10.0358 40.5548 9.81811C39.1761 9.5608 37.9353 8.76904 36.4876 8.67008C35.8278 8.62059 35.1975 8.92739 34.5968 8.76904C33.2673 8.39296 31.8788 8.70966 30.569 8.24451C30.4508 8.20492 30.3031 8.22472 30.1751 8.24451C28.8062 8.34348 29.4365 8.67008 28.0282 8.33358C27.2305 8.14554 37.177 8.22472 36.3301 8.2643C35.0203 8.33358 33.7204 8.72946 32.4204 8.54142C31.0811 8.34348 29.7516 8.48204 28.4221 8.45234C28.2054 8.45234 27.9986 8.41276 27.782 8.39296C26.5903 8.2742 32.2923 8.2643 31.1007 8.31379C29.7909 8.36327 28.4713 8.47214 27.1714 8.35338C24.8374 8.14554 22.5133 8.05647 20.1695 8.33358C18.3476 8.54142 16.4864 8.62059 14.6744 8.55131L14.0441 8.53152L13.3153 8.51173C12.6949 8.51173 12.0745 8.50183 11.454 8.50183H10.5087C10.1935 8.50183 9.85863 8.51173 9.57304 8.50183C8.95262 8.50183 8.34204 8.48204 7.72162 8.47214H6.73682L6.23456 8.45234H6.17554H6.14596L6.16568 8.43255L6.24442 8.35338L6.41188 8.20492L7.7709 7.0074C8.68677 6.20576 9.64206 5.35462 10.7647 4.4936L11.6116 3.8503L12.2911 3.35546C12.6555 3.09814 13.0198 2.84082 13.3842 2.60329C14.1228 2.11835 14.8812 1.65319 15.669 1.23752L16.7523 3.24659L16.0334 3.56329C15.6001 3.75133 15.1569 3.89978 14.7629 4.167C13.6698 4.90926 12.4979 5.50308 11.326 6.09689C10.745 6.3938 10.1541 6.7006 9.5829 7.02719C9.29731 7.18554 9.01173 7.35379 8.73599 7.53194L8.55879 7.6408L8.46022 7.71008C8.40113 7.75956 8.33226 7.79915 8.28302 7.84864C8.28302 7.84864 8.24357 7.84864 8.22387 7.84864C7.94813 7.87833 7.62318 7.9674 7.26865 8.09606C7.09138 8.15544 6.91408 8.23461 6.73682 8.31379L6.46117 8.44245L6.32328 8.51173C6.32328 8.51173 6.20504 8.56121 6.25428 8.57111C6.58911 8.83832 7.18005 9.15502 7.80048 9.46183L8.27316 9.68945L8.79514 9.92698C9.15951 10.0853 9.51401 10.2437 9.87839 10.3921C12.8426 11.649 15.6099 13.3018 18.3378 15.014C18.7317 15.2515 19.0468 15.6177 19.0369 16.1818C19.0369 16.449 19.0272 16.7558 18.7514 16.9538L18.7613 16.9241Z" fill="black"/>
<path d="M28.2055 6.6907C25.9897 6.6907 27.2896 6.46307 25.0836 6.53235C22.4641 6.61153 19.8445 6.80946 17.2348 6.76988L14.832 6.7105L13.6403 6.68081L13.1479 6.66101L12.2321 6.62142L11.779 6.61153H11.72C11.7101 6.61153 11.7002 6.61153 11.7002 6.61153L11.72 6.59173L11.8086 6.52245L11.976 6.374C12.2419 6.13648 12.6063 5.88906 12.9312 5.69112C13.01 5.64163 13.0888 5.59215 13.1676 5.55256L13.2858 5.48328H13.3153L13.3941 5.4338L13.5418 5.33483C13.9554 5.08741 14.3592 4.83999 14.7728 4.60246C15.4917 4.18679 16.2107 3.77112 16.9394 3.35546L15.669 1C12.9017 2.30639 10.2625 3.8602 7.58385 5.33483L7.38682 5.4437L7.28836 5.50308L7.1209 5.60205L6.39216 6.0474C5.89976 6.34431 5.42708 6.66101 4.93468 6.97771L3.4772 7.93771L2 8.92739C3.07343 9.42224 4.13702 9.90719 5.21045 10.3921L6.82554 11.1443L7.22922 11.3323L7.58385 11.5006L7.97767 11.6886C9.02156 12.2033 10.0655 12.7278 11.0897 13.2721C12.8032 14.1826 14.5365 15.103 16.378 15.8354C17.0083 16.0927 17.5697 16.4886 18.1606 16.8251C18.3378 16.9241 18.5052 17.1022 18.7613 16.9241L18.7514 16.9538C19.0272 16.7558 19.0369 16.449 19.0369 16.1818C19.0468 15.6177 18.7317 15.2515 18.3378 15.014C15.6099 13.3018 12.8426 11.649 9.87839 10.3921C9.51401 10.2437 9.15951 10.0853 8.79513 9.92698L8.27316 9.68945L7.80048 9.46183C7.18005 9.15502 6.58911 8.83832 6.25428 8.57111C6.20504 8.56121 6.32328 8.51173 6.32328 8.51173L6.46117 8.44245L6.73682 8.31379C6.91408 8.23461 7.09138 8.15544 7.26865 8.09606C7.62318 7.9674 7.94813 7.87833 8.22387 7.84863C8.24357 7.84863 8.28302 7.84863 8.28302 7.84863C8.33226 7.79915 8.40113 7.75956 8.46022 7.71008L8.55879 7.6408L8.73599 7.53194C9.01173 7.35379 9.29731 7.18554 9.5829 7.02719C10.1541 6.7006 10.745 6.3938 11.326 6.09689C12.4979 5.50308 13.6698 4.90926 14.7629 4.167C15.1569 3.89978 15.6001 3.75133 16.0334 3.56329L16.7523 3.24659L15.669 1.23752C14.8812 1.65319 14.1228 2.11835 13.3842 2.60329C13.0198 2.84082 12.6555 3.09814 12.2911 3.35546L11.6116 3.8503L10.7647 4.4936C9.64206 5.35462 8.68677 6.20576 7.7709 7.0074L6.41188 8.20492L6.24442 8.35338L6.16568 8.43255L6.14596 8.45234H6.17554H6.23456L6.73682 8.47214H7.72162C8.34204 8.48204 8.95262 8.50183 9.57304 8.50183C9.85863 8.51173 10.1935 8.50183 10.5087 8.50183H11.454C12.0745 8.50183 12.6949 8.51173 13.3153 8.51173L14.0441 8.53152L14.6744 8.55131C16.4864 8.62059 18.3476 8.54142 20.1695 8.33358C22.5133 8.05647 24.8374 8.14554 27.1714 8.35338C28.4713 8.47214 29.7909 8.36327 31.1007 8.31379C32.2923 8.2643 26.5903 8.2742 27.782 8.39296C27.9986 8.41276 28.2054 8.45234 28.4221 8.45234C29.7516 8.48204 31.0811 8.34348 32.4204 8.54142C33.7204 8.72946 35.0203 8.33358 36.3301 8.2643C37.177 8.22472 27.2305 8.14554 28.0282 8.33358C29.4365 8.67008 28.8062 8.34348 30.1751 8.24451C30.3031 8.22472 30.4508 8.20492 30.569 8.24451C31.8788 8.70966 33.2673 8.39296 34.5968 8.76904C35.1975 8.92739 35.8278 8.62059 36.4876 8.67008C37.9353 8.76904 39.1761 9.5608 40.5548 9.81811C41.6972 10.0358 42.6623 9.66966 43.6077 9.10554C44.1592 8.76904 44.1198 8.39296 43.5486 8.03668C43.0366 7.71998 42.4654 7.56163 41.8745 7.53194C38.5557 7.3241 35.2271 7.18555 31.9083 6.92823C30.0667 6.78967 28.2449 6.58184 28.2055 6.6907ZM28.2055 6.6907C28.7373 6.6907 27.6737 6.65111 28.2055 6.6907ZM28.2055 6.6907C30.1751 6.81936 30.3622 6.84905 32.3219 6.95792C34.6165 7.08658 26.0685 6.59173 28.2055 6.6907Z" stroke="black"/>
</svg>
