<svg width="24" height="24" viewBox="0 0 24 24" fill="none" xmlns="http://www.w3.org/2000/svg">
<path fill-rule="evenodd" clip-rule="evenodd" d="M12 22C17.5228 22 22 17.5228 22 12C22 6.47715 17.5228 2 12 2C6.47715 2 2 6.47715 2 12C2 17.5228 6.47715 22 12 22ZM12 5.99988C12.5523 5.99988 13 6.44759 13 6.99988V12.9999C13 13.5522 12.5523 13.9999 12 13.9999C11.4477 13.9999 11 13.5522 11 12.9999V6.99988C11 6.44759 11.4477 5.99988 12 5.99988ZM12 17.9999C12.8284 17.9999 13.5 17.3283 13.5 16.4999C13.5 15.6715 12.8284 14.9999 12 14.9999C11.1716 14.9999 10.5 15.6715 10.5 16.4999C10.5 17.3283 11.1716 17.9999 12 17.9999Z" fill="#FF3828"/>
</svg>
