<svg width="24" height="25" viewBox="0 0 24 25" fill="none" xmlns="http://www.w3.org/2000/svg">
<path d="M15.75 9.18652C17.3413 9.18652 18.8674 9.80651 19.9926 10.9101C21.1179 12.0137 21.75 13.5104 21.75 15.0711V21.9365H17.75V15.0711C17.75 14.5509 17.5393 14.052 17.1642 13.6841C16.7891 13.3163 16.2804 13.1096 15.75 13.1096C15.2196 13.1096 14.7109 13.3163 14.3358 13.6841C13.9607 14.052 13.75 14.5509 13.75 15.0711V21.9365H9.75V15.0711C9.75 13.5104 10.3821 12.0137 11.5074 10.9101C12.6326 9.80651 14.1587 9.18652 15.75 9.18652Z" stroke="white" stroke-width="1.66667" stroke-linecap="round" stroke-linejoin="round"/>
<path d="M6 9.93652H2.25V21.9365H6V9.93652Z" stroke="white" stroke-width="1.66667" stroke-linecap="round" stroke-linejoin="round"/>
<path d="M4.125 6.93652C5.16053 6.93652 6 6.09706 6 5.06152C6 4.02599 5.16053 3.18652 4.125 3.18652C3.08947 3.18652 2.25 4.02599 2.25 5.06152C2.25 6.09706 3.08947 6.93652 4.125 6.93652Z" stroke="white" stroke-width="1.66667" stroke-linecap="round" stroke-linejoin="round"/>
</svg>
