<svg width="103" height="28" viewBox="0 0 103 28" fill="none" xmlns="http://www.w3.org/2000/svg">
<g clip-path="url(#clip0_1421_8259)">
<path d="M78.0999 17.6626L78.852 12.1709L79.6042 17.6626H78.0999ZM82.2948 19.7695L80.839 10.5156H76.8665L75.0898 21.8036H77.5432L77.5553 21.7133L77.6497 21.0056L77.8141 19.7722H79.8913L80.1528 21.7362L80.1623 21.8036H82.6102L82.5536 21.445L82.2948 19.7695Z" fill="black"/>
<path d="M90.8585 19.7837L89.8502 10.5137H86.7795L85.8319 19.7985L85.1093 10.5137H82.7773L83.9959 21.7989H87.4575L88.3458 12.5154L89.2786 21.7989H92.6944L93.913 10.5137H91.5796L90.8585 19.7837Z" fill="black"/>
<path d="M99.8402 15.8112L102.068 10.5137H99.4048L97.5392 15.8867V10.5137H95.0117V21.7989H97.5392V16.4124L99.3751 21.7989H102.174L99.8402 15.8112Z" fill="black"/>
<path d="M38.8571 14.0949C38.8571 14.5977 38.7533 14.9576 38.5484 15.1733C38.4413 15.2853 38.3113 15.3728 38.1674 15.4301C38.0234 15.4873 37.8687 15.5128 37.714 15.5049H36.827V13.6595C36.827 13.3839 36.7175 13.1195 36.5226 12.9246C36.3277 12.7297 36.0634 12.6202 35.7877 12.6202H37.7207C38.024 12.6041 38.322 12.7033 38.5551 12.8979C38.76 13.0839 38.8638 13.4115 38.8638 13.8833L38.8571 14.0949ZM40.8656 15.6019C41.2107 15.1558 41.3845 14.5802 41.3845 13.8792V13.4452C41.4061 12.8753 41.2568 12.312 40.9559 11.8276C40.6655 11.3921 40.2555 11.0499 39.7751 10.8422C39.2337 10.6084 38.6487 10.4926 38.0591 10.5025H34.2969V21.8026H36.8257V16.2463L38.8571 21.8026H41.6703L39.4893 16.5819C40.0347 16.3982 40.5135 16.0572 40.8656 15.6019Z" fill="black"/>
<path d="M44.9097 17.6619L45.6619 12.1702L46.414 17.6619H44.9097ZM47.6474 10.5176H43.6749L42.2191 19.7714L41.9023 21.8028H44.3557L44.6253 19.7714H46.7011L46.9707 21.8028H49.4241L49.1046 19.7714L47.6474 10.5176Z" fill="black"/>
<path d="M49.1953 12.696H51.0299V21.7989H53.5884V12.696H55.4243V10.5137H49.1953V12.696Z" fill="black"/>
<path d="M56.3281 12.696V17.1349V21.7989H61.9546V19.6179H58.8556V17.1349H61.9546V14.9526H58.8556V12.696H61.9546V10.5137H56.3281V12.696Z" fill="black"/>
<path d="M71.4349 14.9081H69.1783V10.5137H66.6172V21.803H69.1783V18.15C69.1783 17.8743 69.0689 17.61 68.8739 17.4151C68.679 17.2202 68.4147 17.1107 68.1391 17.1107H71.4349V21.803H73.996V10.5137H71.4349V14.9081Z" fill="black"/>
<path d="M28.2214 9.55925L19.0552 4.26574L12.5309 0.504883L14.3345 3.02965C14.4257 3.15672 14.4721 3.31051 14.4663 3.46681C14.4605 3.62311 14.4028 3.77304 14.3025 3.89301C14.2021 4.01297 14.0647 4.09616 13.9119 4.12947C13.7591 4.16279 13.5995 4.14434 13.4584 4.07702L7.76045 1.40398L19.0525 10.2225C19.0525 10.2225 23.335 13.4805 24.7382 14.6452C24.9864 14.8516 25.1558 15.1372 25.2181 15.454L25.6562 17.7617C26.1105 19.9306 25.2707 20.7448 24.4605 21.2327L23.459 21.8312L23.6154 20.6032C23.6774 20.1314 23.5776 19.9454 23.2945 19.7742L20.8507 18.4087C20.7107 18.3278 20.5556 18.2764 20.395 18.2578C18.7653 18.0353 -0.00390625 15.3758 -0.00390625 15.3758L8.69594 18.2982C8.844 18.3474 8.97155 18.4444 9.05858 18.5739C9.14562 18.7034 9.18723 18.8581 9.17691 19.0138C9.16658 19.1695 9.10489 19.3174 9.00151 19.4343C8.89813 19.5511 8.7589 19.6304 8.60563 19.6597L5.94877 20.1854L18.0806 27.2178C18.402 27.4029 18.7664 27.5003 19.1374 27.5003C19.5083 27.5003 19.8728 27.4029 20.1942 27.2178C22.2458 26.0369 26.6982 23.4744 28.2133 22.5982C28.5334 22.413 28.7994 22.1471 28.9848 21.8272C29.1702 21.5072 29.2686 21.1442 29.2701 20.7744C29.2796 17.9868 29.2796 11.3912 29.2796 11.3912C29.2797 11.0198 29.1819 10.6549 28.9962 10.3333C28.8104 10.0117 28.5432 9.74471 28.2214 9.55925Z" fill="black"/>
<path d="M22.4326 16.5878C22.5021 16.7481 22.6237 16.8802 22.7777 16.9625C22.9318 17.0449 23.1091 17.0727 23.281 17.0415C23.4528 17.0102 23.6091 16.9217 23.7243 16.7904C23.8394 16.6591 23.9068 16.4927 23.9154 16.3182L20.5724 14.334C20.563 14.3851 20.5647 14.4377 20.5772 14.4881C20.5898 14.5385 20.6129 14.5857 20.6452 14.6265C20.7557 14.733 21.95 15.7305 22.3976 16.1093C22.3567 16.2683 22.369 16.4364 22.4326 16.5878Z" fill="black"/>
</g>
<defs>
<clipPath id="clip0_1421_8259">
<rect width="102.177" height="27" fill="white" transform="translate(-0.00390625 0.5)"/>
</clipPath>
</defs>
</svg>
