<svg width="103" height="16" viewBox="0 0 103 16" fill="none" xmlns="http://www.w3.org/2000/svg">
<g clip-path="url(#clip0_1421_8271)">
<path d="M85.0403 0.246094C85.4893 0.246094 85.8688 0.369493 86.169 0.611957C86.4921 0.873909 86.6625 1.22029 86.6625 1.61427C86.6625 2.01122 86.4902 2.35685 86.1637 2.61301C85.8648 2.84826 85.4873 2.96735 85.0403 2.96735C84.5939 2.96735 84.2157 2.84826 83.9168 2.61301C83.5904 2.35685 83.418 2.01122 83.418 1.61427C83.418 1.22029 83.589 0.873909 83.9115 0.611957C84.2117 0.369493 84.5913 0.246094 85.0403 0.246094Z" fill="black"/>
<path fill-rule="evenodd" clip-rule="evenodd" d="M59.3633 4.57956C58.9521 4.29836 58.5014 4.05675 58.0145 3.85775C57.2157 3.53159 56.3029 3.36635 55.3005 3.36635C54.1235 3.36635 53.0527 3.58495 52.1175 4.01579C51.1714 4.45239 50.4245 5.04264 49.897 5.77074C49.3587 6.51332 49.0859 7.31575 49.0859 8.15573C49.0859 9.05707 49.35 9.88545 49.8711 10.6165C50.3841 11.3374 51.118 11.9139 52.0518 12.3289C52.9697 12.7373 54.0355 12.9445 55.2211 12.9445C56.2228 12.9445 57.1457 12.7763 57.9648 12.4458C58.4713 12.2416 58.939 11.994 59.3633 11.7061V12.7071H61.6566V0.436523H59.3633V4.57956ZM59.6014 8.15573C59.6014 7.66144 59.4463 7.227 59.1266 6.82723C58.7961 6.41376 58.3176 6.0796 57.7042 5.83426C57.0728 5.5817 56.3332 5.45323 55.5062 5.45323C54.6792 5.45323 53.9396 5.5817 53.3081 5.83426C52.6955 6.07888 52.217 6.41304 51.8866 6.82651C51.5668 7.22628 51.4117 7.66072 51.4117 8.15501C51.4117 8.6493 51.5668 9.08375 51.8866 9.48352C52.2178 9.89699 52.6955 10.2311 53.3081 10.4758C53.9396 10.729 54.6792 10.8568 55.5069 10.8568C56.3339 10.8568 57.0736 10.729 57.705 10.4765C58.3176 10.2319 58.7953 9.89777 59.1266 9.48424C59.4463 9.08447 59.6014 8.65002 59.6014 8.15573Z" fill="black"/>
<path fill-rule="evenodd" clip-rule="evenodd" d="M15.7673 3.36816C16.9709 3.36816 18.0663 3.57451 19.0247 3.98083C19.9981 4.3943 20.7739 4.96941 21.3295 5.6918C21.8989 6.43216 22.1875 7.26205 22.1875 8.15827C22.1875 9.05456 21.8989 9.88445 21.3295 10.6241C20.7739 11.3457 19.9981 11.9216 19.0254 12.3343C18.0678 12.7406 16.9716 12.947 15.768 12.947C14.5643 12.947 13.4689 12.7435 12.512 12.343C11.5378 11.9353 10.762 11.3616 10.2057 10.6392C9.63633 9.90031 9.34766 9.06465 9.34766 8.15755C9.34766 7.2606 9.63633 6.43071 10.2057 5.69108C10.7613 4.96941 11.5363 4.3943 12.5098 3.98083C13.4674 3.57451 14.5636 3.36816 15.7673 3.36816ZM13.5684 10.4776C14.1999 10.7309 14.9395 10.8586 15.7673 10.8586C16.5949 10.8586 17.3346 10.7309 17.9646 10.4776C18.5773 10.233 19.055 9.89887 19.3862 9.48533C19.7058 9.08556 19.861 8.65118 19.861 8.15683C19.861 7.66254 19.7058 7.22809 19.3862 6.82832C19.0557 6.41557 18.5773 6.08148 17.9646 5.83614C17.3332 5.58352 16.5935 5.45511 15.7665 5.45511C14.9395 5.45511 14.1999 5.58352 13.5684 5.83614C12.9558 6.08076 12.4773 6.41485 12.1468 6.82832C11.8272 7.22809 11.672 7.66254 11.672 8.15683C11.672 8.65118 11.8272 9.08556 12.1468 9.48533C12.478 9.89887 12.9558 10.233 13.5684 10.4776Z" fill="black"/>
<path d="M31.2676 10.1467C31.8911 9.70154 32.1941 8.93156 32.1941 7.79209V3.60449H34.4882V12.7078H32.1949V11.7011C31.8665 11.9617 31.4978 12.1904 31.0922 12.3874C30.3281 12.7576 29.4174 12.9452 28.3847 12.9452C27.5123 12.9452 26.6961 12.772 25.9608 12.43C25.2074 12.0793 24.5948 11.5438 24.1401 10.8381C23.684 10.1309 23.4531 9.2606 23.4531 8.25105V3.60449H25.7465V8.01364C25.7465 9.01166 25.9897 9.74047 26.4688 10.18C26.9581 10.6296 27.7201 10.8575 28.7325 10.8575C29.7543 10.8575 30.6073 10.6187 31.2676 10.1467Z" fill="black"/>
<path d="M46.3977 4.49819C45.4979 3.74847 44.3064 3.36816 42.8574 3.36816C41.8248 3.36816 40.9141 3.55576 40.1499 3.92669C39.7444 4.12372 39.3756 4.35242 39.0473 4.61225V3.60558H36.7539V12.7089H39.0473V8.52127C39.0473 7.38252 39.3504 6.61189 39.9738 6.16663C40.6341 5.69469 41.4871 5.45583 42.5089 5.45583C43.5206 5.45583 44.2826 5.68387 44.7726 6.13339C45.2518 6.57361 45.495 7.30242 45.495 8.29972V12.7089H47.7883V8.06231C47.789 6.46683 47.3207 5.26745 46.3977 4.49819Z" fill="black"/>
<path d="M70.9839 10.7334C70.6214 10.8156 70.2295 10.8575 69.8205 10.8575C69.0142 10.8575 68.3922 10.6929 67.9707 10.3697C67.5788 10.0687 67.3887 9.59824 67.3887 8.93222V5.66038H71.6958V3.60443H67.388V0.436523H65.0627V3.60371H63.0039V5.65966H65.0627V9.12126C65.0627 10.3942 65.5239 11.3684 66.4323 12.0164C67.2956 12.632 68.3922 12.9444 69.6933 12.9444C70.2354 12.9444 70.7362 12.9019 71.1825 12.8182C71.6754 12.7258 72.0458 12.5829 72.3139 12.3823L72.4876 12.2524V10.0435L71.8347 10.4253C71.621 10.5501 71.3346 10.6533 70.9839 10.7334Z" fill="black"/>
<path d="M77.2734 3.89857C77.9656 3.54639 78.7614 3.36816 79.6397 3.36816C80.6249 3.36816 81.439 3.53413 82.0603 3.86173L82.2917 3.98372V6.38745C82.2917 6.38745 81.7031 5.92273 80.7815 5.61964C80.4249 5.50198 79.9792 5.45583 79.466 5.45583C78.9724 5.45583 78.473 5.55035 77.9807 5.73651C77.5061 5.91624 77.1155 6.20196 76.7871 6.60894C76.4731 6.99717 76.321 7.49369 76.321 8.12582V12.7089H73.9961V3.60558H76.321V4.50468C76.6101 4.27671 76.9287 4.07391 77.2734 3.89857Z" fill="black"/>
<path d="M5.97586 3.36816C5.09764 3.36816 4.30169 3.54639 3.60965 3.89857C3.26471 4.07391 2.94649 4.27671 2.6571 4.50468V3.60558H0.332031V12.7089H2.6571V8.12582C2.6571 7.49369 2.80937 6.99717 3.12327 6.60894C3.45161 6.20196 3.84202 5.91624 4.31684 5.73651C4.80899 5.55035 5.30835 5.45583 5.80194 5.45583C6.31502 5.45583 6.761 5.50198 7.11744 5.61964C8.03897 5.92273 8.62784 6.38745 8.62784 6.38745V3.98372L8.3962 3.86173C7.77488 3.53413 6.96085 3.36816 5.97586 3.36816Z" fill="black"/>
<path d="M86.188 3.60449H83.8945V12.7078H86.188V3.60449Z" fill="black"/>
<path fill-rule="evenodd" clip-rule="evenodd" d="M97.9926 3.98372C98.926 4.39935 99.6601 4.97518 100.173 5.69613C100.695 6.42855 100.959 7.25628 100.959 8.15683C100.959 8.99681 100.685 9.79852 100.147 10.5418C99.6195 11.2706 98.8729 11.861 97.9271 12.2968C96.9911 12.7276 95.92 12.9463 94.7435 12.9463C93.7412 12.9463 92.8275 12.781 92.0298 12.4549C91.5428 12.2557 91.0918 12.0139 90.6802 11.7325V15.8761H88.3867V3.60558H90.6802V4.60648C91.1043 4.31925 91.5723 4.07175 92.079 3.86678C92.8983 3.53629 93.8212 3.36816 94.8234 3.36816C96.0079 3.36816 97.0743 3.57523 97.9926 3.98372ZM98.1585 9.48606C98.4783 9.08628 98.633 8.6519 98.633 8.15755C98.633 7.66326 98.4783 7.22881 98.1585 6.82832C97.8281 6.41557 97.3496 6.08148 96.7367 5.83614C96.1055 5.58352 95.3655 5.45511 94.539 5.45511C93.7118 5.45511 92.9724 5.58352 92.3405 5.83614C91.7283 6.08076 91.2498 6.41485 90.9195 6.82832C90.5996 7.22809 90.4442 7.66254 90.4442 8.15683C90.4442 8.65118 90.5996 9.08556 90.9195 9.48533C91.2505 9.89887 91.7283 10.233 92.3405 10.4776C92.9717 10.7309 93.7111 10.8586 94.539 10.8586C95.3655 10.8586 96.1055 10.7309 96.7367 10.4783C97.3496 10.2337 97.8275 9.89959 98.1585 9.48606Z" fill="black"/>
</g>
<defs>
<clipPath id="clip0_1421_8271">
<rect width="101.895" height="16" fill="white" transform="translate(0.175781)"/>
</clipPath>
</defs>
</svg>
