<svg width="103" height="18" viewBox="0 0 103 18" fill="none" xmlns="http://www.w3.org/2000/svg">
<g clip-path="url(#clip0_1421_8283)">
<path fill-rule="evenodd" clip-rule="evenodd" d="M34.7515 6.44788C35.625 7.30427 36.0648 8.57079 36.0648 10.2534V16.6402C36.0648 16.7487 35.9744 16.8392 35.8659 16.8392H32.9382C32.8298 16.8392 32.7394 16.7487 32.7394 16.6402V10.766C32.7394 9.85533 32.5407 9.17389 32.143 8.72152C31.7454 8.27527 31.1671 8.04603 30.4141 8.04603C29.5707 8.04603 28.902 8.30544 28.4081 8.82408C27.908 9.34272 27.661 10.1207 27.661 11.146V16.6342C27.661 16.7427 27.5707 16.8332 27.4623 16.8332H24.5345C24.4261 16.8332 24.3357 16.7427 24.3357 16.6342V5.53117C24.3357 5.42258 24.4261 5.33217 24.5345 5.33217H27.3177C27.4261 5.33217 27.5165 5.42258 27.5165 5.53117V6.67704C27.9562 6.19459 28.5044 5.82065 29.1611 5.5553C29.8177 5.28994 30.5346 5.15723 31.3177 5.15723C32.7214 5.16326 33.872 5.59149 34.7515 6.44788ZM22.6188 12.0265H14.1127C14.2693 12.7382 14.6368 13.3051 15.2211 13.7151C15.8055 14.1313 16.5284 14.3363 17.4019 14.3363C17.9983 14.3363 18.5284 14.2459 18.9922 14.071C19.3959 13.9142 19.7815 13.679 20.1368 13.3654C20.2212 13.293 20.3477 13.293 20.42 13.3775L21.6007 14.6982C21.667 14.7766 21.673 14.8913 21.6007 14.9636C20.7513 15.9225 19.3658 16.978 17.3115 17.0141C16.0163 17.0382 14.8717 16.7608 13.8717 16.2542C12.8777 15.7476 12.1066 15.048 11.5644 14.1494C11.0223 13.2508 10.7512 12.2315 10.7512 11.0917C10.7512 9.96392 11.0162 8.95076 11.5524 8.04612C12.0886 7.14147 12.8175 6.43581 13.7512 5.92924C14.685 5.42258 15.7271 5.16929 16.8777 5.16929C18.0043 5.16929 19.0224 5.41051 19.932 5.89908C20.8417 6.38152 21.5586 7.08114 22.0766 7.98579C22.5947 8.89044 22.8537 9.93979 22.8537 11.14C22.8537 11.1761 22.8357 11.4174 22.8055 11.8516C22.8116 11.9481 22.7273 12.0265 22.6188 12.0265ZM15.0103 8.32957C14.4982 8.75772 14.1849 9.34272 14.0705 10.0846H19.7333C19.6188 9.35479 19.3055 8.77582 18.7935 8.34155C18.2814 7.90737 17.6549 7.69027 16.9139 7.69027C16.1549 7.68424 15.5223 7.90133 15.0103 8.32957ZM10.3174 14.4751V16.6402C10.3174 16.7487 10.2271 16.8392 10.1186 16.8392H0.26911C0.160676 16.8392 0.0703125 16.7487 0.0703125 16.6402V14.9032C0.0703125 14.8551 0.088385 14.8068 0.118506 14.7706L5.92582 7.90133H0.425739C0.317304 7.90133 0.226941 7.81084 0.226941 7.70234V5.5372C0.226941 5.42861 0.317304 5.33821 0.425739 5.33821H9.93191C10.0403 5.33821 10.1307 5.42861 10.1307 5.5372V7.2741C10.1307 7.32237 10.1126 7.37063 10.0825 7.40682L4.27519 14.276H10.1186C10.2271 14.27 10.3174 14.3605 10.3174 14.4751Z" fill="white"/>
<path fill-rule="evenodd" clip-rule="evenodd" d="M93.3714 16.6582C92.5402 16.4411 91.8649 16.1818 91.3416 15.8682C91.2508 15.8139 91.2211 15.7053 91.269 15.6088L92.2083 13.5764C92.257 13.4678 92.3891 13.4316 92.4915 13.492C92.9677 13.7694 93.5216 13.9985 94.1605 14.1795C94.8894 14.3846 95.6001 14.4871 96.2993 14.4871C97.7092 14.4871 98.4133 14.1373 98.4133 13.4377C98.4133 13.112 98.221 12.8768 97.8355 12.732C97.45 12.5873 96.8598 12.4667 96.064 12.3702C95.1247 12.2254 94.3471 12.0626 93.7387 11.8756C93.1246 11.6887 92.5946 11.363 92.1481 10.8926C91.7023 10.4222 91.4737 9.75281 91.4737 8.88427C91.4737 8.15457 91.685 7.51528 92.106 6.94837C92.5278 6.3875 93.1361 5.9472 93.9434 5.63359C94.7507 5.31997 95.6967 5.16321 96.7929 5.16321C97.606 5.16321 98.4133 5.2537 99.2148 5.42856C99.9379 5.59144 100.552 5.8025 101.052 6.07389C101.142 6.12215 101.179 6.24272 101.136 6.33321L100.197 8.34753C100.148 8.45009 100.022 8.49232 99.9198 8.43802C98.9622 7.93748 97.9197 7.68411 96.7929 7.68411C96.0822 7.68411 95.5465 7.78666 95.1907 7.98566C94.8349 8.18473 94.6542 8.44405 94.6542 8.75767C94.6542 9.11351 94.8473 9.36077 95.2328 9.50547C95.6183 9.65025 96.2267 9.78289 97.0703 9.90957C98.0097 10.0663 98.7815 10.2353 99.3774 10.4101C99.9743 10.5911 100.498 10.9107 100.938 11.3811C101.378 11.8515 101.6 12.5089 101.6 13.3472C101.6 14.0589 101.39 14.6921 100.961 15.253C100.534 15.8078 99.914 16.2421 99.0943 16.5497C98.2755 16.8573 97.3055 17.008 96.1788 17.008C95.2147 17.008 94.2811 16.8934 93.3714 16.6582ZM86.7628 0.97168H89.6907C89.7988 0.97168 89.8896 1.06214 89.8896 1.1707V16.6341C89.8896 16.7427 89.7988 16.8331 89.6907 16.8331H86.7628C86.6546 16.8331 86.5638 16.7427 86.5638 16.6341V1.1707C86.5638 1.06214 86.6546 0.97168 86.7628 0.97168ZM72.8109 15.9164C72.847 16.0068 72.8109 16.1154 72.7265 16.1637C72.2265 16.4471 71.1723 17.008 70.0698 17.008C68.8109 17.008 67.8108 16.6582 67.0638 15.9587C66.3168 15.259 65.9433 14.2337 65.9433 12.8768V8.07011L64.371 8.15457C64.2626 8.15457 64.1722 8.06408 64.1722 7.95557V5.79044C64.1722 5.68185 64.2626 5.59144 64.371 5.59144H65.9433V2.99204C65.9433 2.88353 66.0337 2.79304 66.1421 2.79304H69.0699C69.1783 2.79304 69.2687 2.88353 69.2687 2.99204V5.59144H71.9313C72.0398 5.59144 72.1301 5.68185 72.1301 5.79044V7.53337C72.1301 7.64196 72.0458 7.72634 71.9434 7.73237L69.2687 7.90128V12.8346C69.2687 13.3171 69.3952 13.691 69.6422 13.9563C69.8891 14.2217 70.2446 14.3544 70.7024 14.3544C71.1422 14.3544 71.5217 14.2579 71.853 14.0589C71.9554 13.9985 72.094 14.0468 72.1361 14.1614L72.8109 15.9164ZM54.3588 16.2481C53.395 15.7415 52.6479 15.0419 52.1058 14.1433C51.5636 13.2447 51.2925 12.2254 51.2925 11.0856C51.2925 9.94577 51.5636 8.9265 52.1058 8.02789C52.6479 7.12927 53.395 6.42973 54.3588 5.92307C55.3227 5.4165 56.407 5.16321 57.6179 5.16321C58.8287 5.16321 59.9131 5.4165 60.8649 5.92307C61.8167 6.42973 62.5638 7.12927 63.1059 8.02789C63.6481 8.9265 63.9192 9.94577 63.9192 11.0856C63.9192 12.2254 63.6481 13.2447 63.1059 14.1433C62.5638 15.0419 61.8167 15.7415 60.8649 16.2481C59.9131 16.7547 58.8287 17.008 57.6179 17.008C56.401 17.008 55.3167 16.7547 54.3588 16.2481ZM59.7203 13.4075C60.2685 12.8285 60.5397 12.0566 60.5397 11.0856C60.5397 10.1146 60.2625 9.34267 59.7203 8.7637C59.1721 8.18473 58.4733 7.89525 57.6179 7.89525C56.7624 7.89525 56.0577 8.18473 55.5034 8.7637C54.9492 9.34267 54.6721 10.1146 54.6721 11.0856C54.6721 12.0566 54.9492 12.8285 55.5034 13.4075C56.0577 13.9865 56.7624 14.276 57.6179 14.276C58.4673 14.2699 59.1721 13.9865 59.7203 13.4075ZM48.7322 6.44783C49.6057 7.30422 50.0455 8.57066 50.0455 10.2534V16.6401C50.0455 16.7487 49.9551 16.8392 49.8468 16.8392H46.9189C46.8105 16.8392 46.7202 16.7487 46.7202 16.6401V10.766C46.7202 9.85528 46.5214 9.17375 46.1238 8.72147C45.7261 8.27514 45.1478 8.04598 44.3948 8.04598C43.5575 8.04598 42.8828 8.3053 42.3888 8.82403C41.8887 9.34267 41.6418 10.1206 41.6418 11.1459V16.6341C41.6418 16.7427 41.5514 16.8331 41.443 16.8331H38.5153C38.4068 16.8331 38.3164 16.7427 38.3164 16.6341V1.1707C38.3164 1.06214 38.4068 0.97168 38.5153 0.97168H41.443C41.5514 0.97168 41.6418 1.06214 41.6418 1.1707V6.52617C42.0816 6.08595 42.6177 5.74821 43.2442 5.51302C43.8708 5.27783 44.5514 5.15717 45.2924 5.15717C46.7081 5.16321 47.8527 5.59136 48.7322 6.44783ZM84.865 12.0264H76.3591C76.5158 12.7381 76.8832 13.305 77.4675 13.7151C78.0519 14.1313 78.7748 14.3363 79.6483 14.3363C80.2447 14.3363 80.7748 14.2458 81.2387 14.0709C81.6423 13.9141 82.0279 13.6789 82.3833 13.3653C82.4677 13.293 82.5941 13.293 82.666 13.3773L83.8472 14.6982C83.9133 14.7766 83.9191 14.8911 83.853 14.9635C83.0036 15.9225 81.6182 16.9778 79.5639 17.014C78.2688 17.0382 77.1242 16.7607 76.1242 16.2542C75.1302 15.7475 74.3591 15.048 73.8169 14.1494C73.2748 13.2507 73.0036 12.2315 73.0036 11.0916C73.0036 9.96387 73.2687 8.95063 73.8049 8.04598C74.341 7.14133 75.07 6.43576 76.0037 5.9291C76.9374 5.42253 77.9796 5.16924 79.1302 5.16924C80.2568 5.16924 81.2749 5.41046 82.1845 5.89894C83.0944 6.38147 83.8109 7.08101 84.3293 7.98566C84.8469 8.8903 85.1061 9.93974 85.1061 11.1399C85.1061 11.1761 85.0879 11.4173 85.0582 11.8515C85.0582 11.948 84.974 12.0264 84.865 12.0264ZM77.2567 8.32943C76.7447 8.75767 76.4314 9.34267 76.3169 10.0844H81.9796C81.8652 9.35474 81.552 8.77577 81.0399 8.3415C80.5278 7.90731 79.9013 7.69014 79.1604 7.69014C78.4013 7.68411 77.7687 7.90128 77.2567 8.32943Z" fill="white"/>
</g>
<defs>
<clipPath id="clip0_1421_8283">
<rect width="102" height="17" fill="white" transform="translate(0.0703125 0.5)"/>
</clipPath>
</defs>
</svg>
